<svg id="efI0uY6Ucry1" xmlns="http://www.w3.org/2000/svg" xmlns:xlink="http://www.w3.org/1999/xlink" viewBox="0 -960 960 960" shape-rendering="geometricPrecision" text-rendering="geometricPrecision"><rect width="480" height="480" rx="0" ry="0" transform="translate(240-720)" fill="#fff" stroke-width="0"/><path d="M422.304,-284.695l290.479-290.479-71.262-71.827-219.217,219.217-107.217-107.217-71.261,71.827l178.478,178.479ZM480,-60.782q-87.522,0-163.906-32.96-76.385-32.96-132.888-89.464-56.504-56.503-89.464-132.888-32.96-76.384-32.96-163.906t32.96-163.906q32.96-76.385,89.464-132.888q56.503-56.504,132.888-89.464q76.384-32.96,163.906-32.96t163.906,32.96q76.385,32.96,132.888,89.464q56.504,56.503,89.464,132.888q32.96,76.384,32.96,163.906t-32.96,163.906q-32.96,76.385-89.464,132.888-56.503,56.504-132.888,89.464-76.384,32.96-163.906,32.96Z" fill="#00838f"/></svg>
